<?xml version="1.0" encoding="iso-8859-1"?>
<!-- Generator: Adobe Illustrator 19.0.0, SVG Export Plug-In . SVG Version: 6.00 Build 0)  -->
<svg version="1.1" id="Capa_1" xmlns="http://www.w3.org/2000/svg" xmlns:xlink="http://www.w3.org/1999/xlink" x="0px" y="0px"
	 viewBox="0 0 512 512" style="enable-background:new 0 0 512 512;" xml:space="preserve">
<polygon style="fill:#008D75;" points="256,150.16 246,262 271,262 271,140.16 "/>
<polygon style="fill:#2DB37F;" points="241,140.16 241,262 256,262 256,150.16 "/>
<path style="fill:#00A085;" d="M256,150c82.843,0,150-67.157,150-150C323.157,0,256,67.157,256,150z"/>
<path style="fill:#5AC779;" d="M106,0c0,82.843,67.157,150,150,150C256,67.157,188.843,0,106,0z"/>
<polygon style="fill:#FF7452;" points="406,444.5 396,478.25 406,512 436,512 436,444.5 "/>
<polygon style="fill:#FB9D46;" points="376,444.5 366,478.25 376,512 406,512 406,444.5 "/>
<polygon style="fill:#FF7452;" points="346,424.5 336,478.25 346,512 376,512 376,424.5 "/>
<polygon style="fill:#FB9D46;" points="316,424.5 306,478.25 316,512 346,512 346,424.5 "/>
<polygon style="fill:#FF7452;" points="286,424.5 276,478.25 286,512 316,512 316,424.5 "/>
<polygon style="fill:#FB9D46;" points="256,424.5 246,478.25 256,512 286,512 286,424.5 "/>
<polygon style="fill:#FDBA4C;" points="226,424.5 216,478.25 226,512 256,512 256,424.5 "/>
<polygon style="fill:#FB9D46;" points="196,424.5 186,478.25 196,512 226,512 226,424.5 "/>
<polygon style="fill:#FDBA4C;" points="166,424.5 156,478.25 166,512 196,512 196,424.5 "/>
<polygon style="fill:#FB9D46;" points="136,424.5 126,478.25 136,512 166,512 166,424.5 "/>
<rect x="106" y="424.5" style="fill:#FDBA4C;" width="30" height="87.5"/>
<polygon style="fill:#FB9D46;" points="436,309.5 426,343.25 436,377 466,377 466,309.5 "/>
<polygon style="fill:#FF7452;" points="406,289.5 396,343.25 406,377 436,377 436,309.5 "/>
<polygon style="fill:#FB9D46;" points="376,289.5 366,343.25 376,377 406,377 406,289.5 "/>
<polygon style="fill:#FF7452;" points="346,289.5 336,343.25 346,397 376,397 376,289.5 "/>
<polygon style="fill:#FB9D46;" points="316,289.5 306,343.25 316,397 346,397 346,289.5 "/>
<polygon style="fill:#FF7452;" points="286,289.5 276,343.25 286,397 316,397 316,289.5 "/>
<polygon style="fill:#FB9D46;" points="256,289.5 246,343.25 256,397 286,397 286,289.5 "/>
<polygon style="fill:#FDBA4C;" points="226,289.5 216,343.25 226,397 256,397 256,289.5 "/>
<polygon style="fill:#FFD652;" points="196,289.5 186,343.25 196,397 226,397 226,289.5 "/>
<polygon style="fill:#FDBA4C;" points="166,289.5 156,343.25 166,397 196,397 196,289.5 "/>
<rect x="136" y="289.5" style="fill:#FFD652;" width="30" height="107.5"/>
<polygon style="fill:#FB9D46;" points="406,242 396,275.75 406,309.5 436,309.5 436,242 "/>
<polygon style="fill:#FDBA4C;" points="376,242 366,275.75 376,309.5 406,309.5 406,242 "/>
<polygon style="fill:#FB9D46;" points="346,242 336,275.75 346,309.5 376,309.5 376,242 "/>
<polygon style="fill:#FDBA4C;" points="316,242 306,275.75 316,309.5 346,309.5 346,242 "/>
<polygon style="fill:#FB9D46;" points="286,242 276,275.75 286,309.5 316,309.5 316,242 "/>
<polygon style="fill:#FDBA4C;" points="256,242 246,275.75 256,309.5 286,309.5 286,242 "/>
<polygon style="fill:#FFD652;" points="226,242 216,275.75 226,309.5 256,309.5 256,242 "/>
<polygon style="fill:#FBE287;" points="196,242 186,275.75 196,309.5 226,309.5 226,242 "/>
<polygon style="fill:#FFD652;" points="166,242 156,275.75 166,309.5 196,309.5 196,242 "/>
<polygon style="fill:#FBE287;" points="136,242 126,275.75 136,309.5 166,309.5 166,242 "/>
<rect x="106" y="242" style="fill:#FFD652;" width="30" height="67.5"/>
<polygon style="fill:#FB9D46;" points="346,377 336,410.75 346,444.5 376,444.5 376,377 "/>
<polygon style="fill:#FDBA4C;" points="316,377 306,410.75 316,444.5 346,444.5 346,377 "/>
<polygon style="fill:#FB9D46;" points="286,377 276,410.75 286,444.5 316,444.5 316,377 "/>
<polygon style="fill:#FDBA4C;" points="256,377 246,410.75 256,444.5 286,444.5 286,377 "/>
<polygon style="fill:#FFD652;" points="226,377 216,410.75 226,444.5 256,444.5 256,377 "/>
<polygon style="fill:#FBE287;" points="196,377 186,410.75 196,444.5 226,444.5 226,377 "/>
<polygon style="fill:#FFD652;" points="166,377 156,410.75 166,444.5 196,444.5 196,377 "/>
<polygon style="fill:#FBE287;" points="136,377 126,410.75 136,444.5 166,444.5 166,377 "/>
<polygon style="fill:#FFD652;" points="106,377 96,410.75 106,444.5 136,444.5 136,377 "/>
<polygon style="fill:#FBE287;" points="76,377 66,410.75 76,444.5 106,444.5 106,377 "/>
<rect x="46" y="377" style="fill:#FFD652;" width="30" height="67.5"/>
<g>
</g>
<g>
</g>
<g>
</g>
<g>
</g>
<g>
</g>
<g>
</g>
<g>
</g>
<g>
</g>
<g>
</g>
<g>
</g>
<g>
</g>
<g>
</g>
<g>
</g>
<g>
</g>
<g>
</g>
</svg>
