<svg xmlns="http://www.w3.org/2000/svg" viewBox="0 0 455.731 455.731"><path d="M316.244 149.903L149.082 253.579a7.605 7.605 0 0 0-3.255 8.717l22.423 72.253c.471 1.518 2.683 1.309 2.861-.271l5.45-48.448a7.603 7.603 0 0 1 2.519-4.847l141.556-125.177c3.389-2.996-.547-8.288-4.392-5.903z"/><path d="M0 0v455.731h455.731V0H0zm379.882 118.418l-52.031 248.76c-2.442 11.673-16.133 16.916-25.747 9.859l-78.559-57.665-40.039 40.881c-7.027 7.175-19.166 4.271-22.185-5.308l-28.901-91.706-77.441-22.868c-10.16-3-10.759-17.165-.888-21.012L358.844 100.6c11.6-4.52 23.587 5.632 21.038 17.818z"/></svg>