<svg xmlns="http://www.w3.org/2000/svg" width="70" height="70" viewBox="0 0 70 70">
  <g id="hit" transform="translate(-12799 3122)">
    <path id="Path_231" data-name="Path 231" d="M0,0H70L0,70Z" transform="translate(12799 -3122)" fill="#c51711"/>
    <path id="Path_232" data-name="Path 232" d="M-4.119-.088-6.252-3.85l1.787-3.1H-6.114L-7.052-5.1-7.98-6.95H-9.668l1.856,3.189L-9.964-.088h1.718l1.224-2.419L-5.788-.088Zm5.578,0V-6.95H.008L-1.661-3.3A8.337,8.337,0,0,0-2.135-2.1c.03-.434.059-1.106.059-1.451v-3.4h-1.4V-.088h1.451L-.357-3.741A8.337,8.337,0,0,0,.116-4.936C.087-4.5.057-3.83.057-3.484v3.4ZM7.294-6.95H2.348v1.135H4.026V-.088h1.4V-5.815H7.067Zm-22.3,21.672V7.86h-4.65v6.862h1.382V9h1.886v5.727Zm1.481-6.862v6.862h1.4V12.195h.76a2.845,2.845,0,0,0,1.372-.227A2.141,2.141,0,0,0-8.809,9.973,1.929,1.929,0,0,0-9.8,8.2a3.085,3.085,0,0,0-1.58-.336Zm1.4,3.209V8.976h.879a.885.885,0,0,1,.711.3,1.158,1.158,0,0,1,.217.741,1.253,1.253,0,0,1-.168.7c-.138.237-.286.355-.918.355Zm6.981-3.327a2.71,2.71,0,0,0-2.133.908A3.97,3.97,0,0,0-8.118,11.3a3.979,3.979,0,0,0,.839,2.636,2.71,2.71,0,0,0,2.133.908,2.71,2.71,0,0,0,2.133-.908A3.979,3.979,0,0,0-2.174,11.3,3.97,3.97,0,0,0-3.013,8.65,2.71,2.71,0,0,0-5.146,7.742Zm0,1.056a1.2,1.2,0,0,1,1.126.731A3.687,3.687,0,0,1-3.734,11.3a3.666,3.666,0,0,1-.286,1.757,1.172,1.172,0,0,1-1.126.731,1.172,1.172,0,0,1-1.126-.731A3.666,3.666,0,0,1-6.558,11.3a3.687,3.687,0,0,1,.286-1.767A1.2,1.2,0,0,1-5.146,8.8ZM3.849,7.86H-.081l-.03.889a19.384,19.384,0,0,1-.237,2.31,10.238,10.238,0,0,1-.889,2.577h-.444v2.745H-.348V14.722H3.227v1.659H4.559V13.636H3.849ZM1.054,8.946H2.447v4.69H-.022A5.764,5.764,0,0,0,.59,12.145a9.2,9.2,0,0,0,.425-2.5Zm9.607,5.776L8.5,7.84H7.008L4.757,14.722H6.2l.484-1.629H8.7l.484,1.629ZM7.018,11.958c.128-.385.188-.622.365-1.284.079-.306.227-.9.326-1.313.128.652.188.839.276,1.2.079.346.158.691.375,1.392ZM19.241,7.742l-.662.089a1.126,1.126,0,0,0-.731.306,1.412,1.412,0,0,0-.326.691l-.207.879a1.254,1.254,0,0,1-.286.622,1.186,1.186,0,0,1-.612.2h-.464V7.86H14.581v2.666h-.464a1.186,1.186,0,0,1-.612-.2,1.254,1.254,0,0,1-.286-.622l-.207-.879a1.412,1.412,0,0,0-.326-.691,1.126,1.126,0,0,0-.731-.306l-.662-.089-.267.918.316.079a.815.815,0,0,1,.316.138.856.856,0,0,1,.257.454L12.1,10a1.679,1.679,0,0,0,.365.77A1.316,1.316,0,0,0,13,11.1a1.412,1.412,0,0,0-.513.316,2.071,2.071,0,0,0-.395.711l-.286,1.017a.748.748,0,0,1-.326.5,2.526,2.526,0,0,1-.395.158l-.207.059.257.958.78-.089a1.192,1.192,0,0,0,.829-.395,1.913,1.913,0,0,0,.326-.849l.227-1a1.2,1.2,0,0,1,.326-.612.876.876,0,0,1,.662-.217h.3v3.061h1.372V11.661h.3a.876.876,0,0,1,.662.217,1.2,1.2,0,0,1,.326.612l.227,1a1.913,1.913,0,0,0,.326.849,1.192,1.192,0,0,0,.829.395l.78.089.257-.958-.207-.059a2.526,2.526,0,0,1-.395-.158.748.748,0,0,1-.326-.5l-.286-1.017a2.071,2.071,0,0,0-.395-.711,1.412,1.412,0,0,0-.513-.316,1.316,1.316,0,0,0,.533-.326,1.679,1.679,0,0,0,.365-.77l.188-.671a.856.856,0,0,1,.257-.454.815.815,0,0,1,.316-.138l.316-.079Z" transform="translate(12818.434 -3102.909) rotate(-45)" fill="#fff"/>
  </g>
</svg>
