<svg xmlns="http://www.w3.org/2000/svg" width="236.923" height="16.79"><path data-name="Path 14" d="M9.433 7.704v2.527h2.875v2.19l-.348.292a3.9 3.9 0 0 1-1.247.646 5.757 5.757 0 0 1-1.965.32 5.122 5.122 0 0 1-3.773-1.517 5.122 5.122 0 0 1-1.521-3.773A5.122 5.122 0 0 1 4.97 4.616 5.122 5.122 0 0 1 8.743 3.1a5.217 5.217 0 0 1 1.606.253 5.879 5.879 0 0 1 1.269.55 5.317 5.317 0 0 1 .893.691 5.21 5.21 0 0 1 .528.556l.185.253 2.19-2.19-.258-.337a5.329 5.329 0 0 0-.814-.8 13.081 13.081 0 0 0-1.3-.943 7.2 7.2 0 0 0-1.881-.8A8.649 8.649 0 0 0 8.746.002 8.581 8.581 0 0 0 2.53 2.461a7.966 7.966 0 0 0-2.532 5.93 7.984 7.984 0 0 0 2.534 5.933 8.571 8.571 0 0 0 6.216 2.465 9.211 9.211 0 0 0 2.488-.337 9.35 9.35 0 0 0 1.954-.747 9.9 9.9 0 0 0 1.415-.943 8.54 8.54 0 0 0 .865-.752q.2-.219.286-.331V7.704zm15.521.69a5.164 5.164 0 0 1 1.5-3.762 4.944 4.944 0 0 1 3.667-1.533 4.944 4.944 0 0 1 3.667 1.533 5.164 5.164 0 0 1 1.5 3.762 5.145 5.145 0 0 1-1.5 3.757 4.953 4.953 0 0 1-3.667 1.527 4.953 4.953 0 0 1-3.667-1.527 5.145 5.145 0 0 1-1.5-3.757zm-3.571-.006a7.984 7.984 0 0 0 2.532 5.935 8.564 8.564 0 0 0 6.208 2.466 8.564 8.564 0 0 0 6.21-2.465 7.984 7.984 0 0 0 2.532-5.935 7.966 7.966 0 0 0-2.532-5.93A8.574 8.574 0 0 0 30.123 0a8.574 8.574 0 0 0-6.21 2.459 7.966 7.966 0 0 0-2.533 5.93zm34.382 8.053v-3.1h-7.469v-13h-3.459v16.1zm5.4-16.1v16.1h5.989a8.088 8.088 0 0 0 5.9-2.336 7.7 7.7 0 0 0 2.381-5.716 7.7 7.7 0 0 0-2.381-5.716 8.088 8.088 0 0 0-5.9-2.332zm5.989 3.106a4.585 4.585 0 0 1 3.448 1.438 4.875 4.875 0 0 1 1.381 3.51 4.814 4.814 0 0 1-1.415 3.51 4.616 4.616 0 0 1-3.414 1.436h-2.531V3.447zM117.12.341v1.617h5.065v14.483h1.718V1.954h5.065V.341zm17.472 0v16.1h1.729v-6.435h4.593l3.572 6.435h1.954l-3.8-6.671.348-.112a3.588 3.588 0 0 0 .831-.449 6.839 6.839 0 0 0 .977-.82 4.008 4.008 0 0 0 .831-1.336 4.951 4.951 0 0 0 .348-1.887 4.63 4.63 0 0 0-1.409-3.448 4.857 4.857 0 0 0-3.543-1.381zm6.435 1.617a3.183 3.183 0 0 1 2.347.87 3.16 3.16 0 0 1 .876 2.347 3.16 3.16 0 0 1-.876 2.347 3.183 3.183 0 0 1-2.347.87h-4.706V1.957zm20.583 8.383h-6.21l3.111-7.592zm.7 1.617l1.838 4.483h1.831l-6.671-16.1h-1.606l-6.671 16.1h1.842l1.842-4.481zM171.73.334v16.107h5.065a8.216 8.216 0 0 0 5.952-2.37 7.646 7.646 0 0 0 2.437-5.683 7.646 7.646 0 0 0-2.437-5.683 8.216 8.216 0 0 0-5.952-2.37zm5.065 1.617a6.533 6.533 0 0 1 4.75 1.875 6.14 6.14 0 0 1 1.92 4.565 6.14 6.14 0 0 1-1.92 4.565 6.533 6.533 0 0 1-4.75 1.875h-3.341V1.954zm16.67 12.884V8.849h7.468V7.241h-7.468v-5.29h9.31V.341h-11.04v16.1h11.275v-1.606zm15.742-14.5v16.106h1.729v-6.435h4.593l3.573 6.435h1.952l-3.8-6.671.348-.112a3.588 3.588 0 0 0 .831-.449 6.839 6.839 0 0 0 .977-.82 4.008 4.008 0 0 0 .831-1.336 4.951 4.951 0 0 0 .348-1.887 4.63 4.63 0 0 0-1.409-3.448 4.857 4.857 0 0 0-3.543-1.381zm6.435 1.617a3.183 3.183 0 0 1 2.347.87 3.16 3.16 0 0 1 .876 2.347 3.16 3.16 0 0 1-.876 2.347 3.183 3.183 0 0 1-2.347.87h-4.706V1.951zm19.55 10.119a2.721 2.721 0 0 1-.955 2.162 4.05 4.05 0 0 1-2.729.825 5.836 5.836 0 0 1-1.594-.217 5.886 5.886 0 0 1-1.23-.472 4.936 4.936 0 0 1-.848-.6 5.541 5.541 0 0 1-.511-.483q-.118-.14-.163-.208l-1.055 1.173.213.258a3.411 3.411 0 0 0 .64.606 9.061 9.061 0 0 0 1.056.7 6.5 6.5 0 0 0 1.527.6 7.481 7.481 0 0 0 1.965.253 5.784 5.784 0 0 0 3.976-1.277 4.227 4.227 0 0 0 1.438-3.319 3.968 3.968 0 0 0-.483-2.016 3.52 3.52 0 0 0-1.258-1.3 9.2 9.2 0 0 0-1.7-.781q-.927-.32-1.859-.584a14.861 14.861 0 0 1-1.707-.59 3.212 3.212 0 0 1-1.258-.91 2.148 2.148 0 0 1-.483-1.415 2.492 2.492 0 0 1 .938-1.954 3.729 3.729 0 0 1 2.521-.809 4.758 4.758 0 0 1 1.286.174 4.335 4.335 0 0 1 1 .393 5.5 5.5 0 0 1 .713.494 3.908 3.908 0 0 1 .427.382 2.08 2.08 0 0 1 .135.174l1.157-1.157-.191-.225a3.366 3.366 0 0 0-.6-.511 10.371 10.371 0 0 0-.943-.6 5.913 5.913 0 0 0-1.32-.517 6.229 6.229 0 0 0-1.668-.219 5.418 5.418 0 0 0-3.751 1.275 4 4 0 0 0-1.424 3.105 3.976 3.976 0 0 0 .483 2.01 3.523 3.523 0 0 0 1.252 1.3 8.982 8.982 0 0 0 1.7.781q.932.32 1.864.584a14.512 14.512 0 0 1 1.7.59 3.22 3.22 0 0 1 1.252.91 2.148 2.148 0 0 1 .487 1.416z" fill="#fff"/><path data-name="Path 15" d="M88.854 0h16.79v16.79h-16.79z" fill="#d4b05f"/></svg>